<?xml version="1.0" encoding="UTF-8" standalone="no"?>
<!DOCTYPE svg PUBLIC "-//W3C//DTD SVG 1.1//EN"
 "http://www.w3.org/Graphics/SVG/1.1/DTD/svg11.dtd">
<!-- Generated by graphviz version 14.1.2 (20260124.0452)
 -->
<!-- Title: fig01_power_model_paper_v15_tb_top_card_row_chain Pages: 1 -->
<svg width="335pt" height="157pt"
 viewBox="0.00 0.00 335.00 157.00" xmlns="http://www.w3.org/2000/svg" xmlns:xlink="http://www.w3.org/1999/xlink">
<g id="graph0" class="graph" transform="scale(1 1) rotate(0) translate(5.76 151.53)">
<title>fig01_power_model_paper_v15_tb_top_card_row_chain</title>
<!-- components -->
<g id="node1" class="node">
<title>components</title>
<path fill="#f1f5f9" stroke="#334155" stroke-width="1.05" d="M187.89,-145.77C187.89,-145.77 12,-145.77 12,-145.77 6,-145.77 0,-139.77 0,-133.77 0,-133.77 0,-81.76 0,-81.76 0,-75.76 6,-69.76 12,-69.76 12,-69.76 187.89,-69.76 187.89,-69.76 193.89,-69.76 199.89,-75.76 199.89,-81.76 199.89,-81.76 199.89,-133.77 199.89,-133.77 199.89,-139.77 193.89,-145.77 187.89,-145.77"/>
<text xml:space="preserve" text-anchor="start" x="10.32" y="-126.49" font-family="Helvetica,sans-Serif" font-weight="bold" font-size="12.00">Components</text>
<polygon fill="#e2e8f0" stroke="none" points="6.32,-97.39 6.32,-118.14 46.57,-118.14 46.57,-97.39 6.32,-97.39"/>
<text xml:space="preserve" text-anchor="start" x="11.82" y="-103.74" font-family="Helvetica,sans-Serif" font-style="italic" font-size="12.00">P</text>
<text xml:space="preserve" text-anchor="start" x="20.07" y="-103.74" font-family="Helvetica,sans-Serif" baseline-shift="sub" font-size="12.00">base</text>
<polygon fill="#dbeafe" stroke="none" points="48.57,-97.39 48.57,-118.14 104.57,-118.14 104.57,-97.39 48.57,-97.39"/>
<text xml:space="preserve" text-anchor="start" x="52.57" y="-103.74" font-family="Helvetica,sans-Serif" font-style="italic" font-size="12.00">P</text>
<text xml:space="preserve" text-anchor="start" x="60.82" y="-103.74" font-family="Helvetica,sans-Serif" baseline-shift="sub" font-size="12.00">screen</text>
<text xml:space="preserve" text-anchor="start" x="90.07" y="-103.74" font-family="Helvetica,sans-Serif" font-size="12.00">(t)</text>
<polygon fill="#dcfce7" stroke="none" points="106.57,-97.39 106.57,-118.14 149.07,-118.14 149.07,-97.39 106.57,-97.39"/>
<text xml:space="preserve" text-anchor="start" x="110.57" y="-103.74" font-family="Helvetica,sans-Serif" font-style="italic" font-size="12.00">P</text>
<text xml:space="preserve" text-anchor="start" x="118.82" y="-103.74" font-family="Helvetica,sans-Serif" baseline-shift="sub" font-size="12.00">cpu</text>
<text xml:space="preserve" text-anchor="start" x="134.57" y="-103.74" font-family="Helvetica,sans-Serif" font-size="12.00">(t)</text>
<polygon fill="#dcfce7" stroke="none" points="151.07,-97.39 151.07,-118.14 193.57,-118.14 193.57,-97.39 151.07,-97.39"/>
<text xml:space="preserve" text-anchor="start" x="155.07" y="-103.74" font-family="Helvetica,sans-Serif" font-style="italic" font-size="12.00">P</text>
<text xml:space="preserve" text-anchor="start" x="163.32" y="-103.74" font-family="Helvetica,sans-Serif" baseline-shift="sub" font-size="12.00">gpu</text>
<text xml:space="preserve" text-anchor="start" x="179.07" y="-103.74" font-family="Helvetica,sans-Serif" font-size="12.00">(t)</text>
<polygon fill="#ffe4e6" stroke="none" points="6.32,-74.64 6.32,-95.39 46.57,-95.39 46.57,-74.64 6.32,-74.64"/>
<text xml:space="preserve" text-anchor="start" x="10.32" y="-80.99" font-family="Helvetica,sans-Serif" font-style="italic" font-size="12.00">P</text>
<text xml:space="preserve" text-anchor="start" x="18.57" y="-80.99" font-family="Helvetica,sans-Serif" baseline-shift="sub" font-size="12.00">net</text>
<text xml:space="preserve" text-anchor="start" x="32.07" y="-80.99" font-family="Helvetica,sans-Serif" font-size="12.00">(t)</text>
<polygon fill="#ffe4e6" stroke="none" points="48.57,-74.64 48.57,-95.39 104.57,-95.39 104.57,-74.64 48.57,-74.64"/>
<text xml:space="preserve" text-anchor="start" x="59.32" y="-80.99" font-family="Helvetica,sans-Serif" font-style="italic" font-size="12.00">P</text>
<text xml:space="preserve" text-anchor="start" x="67.57" y="-80.99" font-family="Helvetica,sans-Serif" baseline-shift="sub" font-size="12.00">gps</text>
<text xml:space="preserve" text-anchor="start" x="83.32" y="-80.99" font-family="Helvetica,sans-Serif" font-size="12.00">(t)</text>
<polygon fill="#fef9c3" stroke="none" points="106.57,-74.64 106.57,-95.39 149.07,-95.39 149.07,-74.64 106.57,-74.64"/>
<text xml:space="preserve" text-anchor="start" x="113.19" y="-80.99" font-family="Helvetica,sans-Serif" font-style="italic" font-size="12.00">P</text>
<text xml:space="preserve" text-anchor="start" x="121.44" y="-80.99" font-family="Helvetica,sans-Serif" baseline-shift="sub" font-size="12.00">bg</text>
<text xml:space="preserve" text-anchor="start" x="131.94" y="-80.99" font-family="Helvetica,sans-Serif" font-size="12.00">(t)</text>
<polygon fill="#fef9c3" stroke="none" points="151.07,-74.64 151.07,-95.39 193.57,-95.39 193.57,-74.64 151.07,-74.64"/>
<text xml:space="preserve" text-anchor="start" x="157.69" y="-80.99" font-family="Helvetica,sans-Serif" font-style="italic" font-size="12.00">P</text>
<text xml:space="preserve" text-anchor="start" x="165.94" y="-80.99" font-family="Helvetica,sans-Serif" baseline-shift="sub" font-size="12.00">int</text>
<text xml:space="preserve" text-anchor="start" x="176.44" y="-80.99" font-family="Helvetica,sans-Serif" font-size="12.00">(t)</text>
</g>
<!-- p_device -->
<g id="node2" class="node">
<title>p_device</title>
<path fill="#e0e7ff" stroke="#334155" stroke-width="1.05" d="M118.89,-38.88C118.89,-38.88 81,-38.88 81,-38.88 75,-38.88 69,-32.88 69,-26.88 69,-26.88 69,-14.88 69,-14.88 69,-8.88 75,-2.88 81,-2.88 81,-2.88 118.89,-2.88 118.89,-2.88 124.89,-2.88 130.89,-8.88 130.89,-14.88 130.89,-14.88 130.89,-26.88 130.89,-26.88 130.89,-32.88 124.89,-38.88 118.89,-38.88"/>
<text xml:space="preserve" text-anchor="start" x="73.32" y="-16.85" font-family="Helvetica,sans-Serif" font-size="12.00"> </text>
<text xml:space="preserve" text-anchor="start" x="76.32" y="-16.85" font-family="Helvetica,sans-Serif" font-style="italic" font-size="12.00">P</text>
<text xml:space="preserve" text-anchor="start" x="84.57" y="-16.85" font-family="Helvetica,sans-Serif" baseline-shift="sub" font-size="12.00">device</text>
<text xml:space="preserve" text-anchor="start" x="113.07" y="-16.85" font-family="Helvetica,sans-Serif" font-size="12.00">(t) </text>
</g>
<!-- components&#45;&gt;p_device -->
<g id="edge1" class="edge">
<title>components&#45;&gt;p_device</title>
<path fill="none" stroke="#334155" d="M99.94,-69.29C99.94,-62.41 99.94,-55.35 99.94,-48.86"/>
<polygon fill="#334155" stroke="#334155" points="102.92,-49.23 99.95,-40.73 96.97,-49.23 102.92,-49.23"/>
<text xml:space="preserve" text-anchor="start" x="99.94" y="-52.31" font-family="Helvetica,sans-Serif" font-size="11.00" fill="#64748b"> </text>
<text xml:space="preserve" text-anchor="start" x="102.94" y="-52.31" font-family="Helvetica,sans-Serif" font-size="10.00" fill="#64748b">Σ (sum)</text>
<text xml:space="preserve" text-anchor="start" x="136.69" y="-52.31" font-family="Helvetica,sans-Serif" font-size="11.00" fill="#64748b"> </text>
</g>
<!-- pmic -->
<g id="node3" class="node">
<title>pmic</title>
<path fill="#ffffff" stroke="#334155" stroke-width="1.05" d="M230.64,-41.76C230.64,-41.76 197.25,-41.76 197.25,-41.76 191.25,-41.76 185.25,-35.76 185.25,-29.76 185.25,-29.76 185.25,-12 185.25,-12 185.25,-6 191.25,0 197.25,0 197.25,0 230.64,0 230.64,0 236.64,0 242.64,-6 242.64,-12 242.64,-12 242.64,-29.76 242.64,-29.76 242.64,-35.76 236.64,-41.76 230.64,-41.76"/>
<text xml:space="preserve" text-anchor="start" x="198.94" y="-25.48" font-family="Helvetica,sans-Serif" font-weight="bold" font-size="12.00">PMIC</text>
<text xml:space="preserve" text-anchor="start" x="192.57" y="-8.63" font-family="Helvetica,sans-Serif" font-style="italic" font-size="10.00">η</text>
<text xml:space="preserve" text-anchor="start" x="198.57" y="-8.63" font-family="Helvetica,sans-Serif" baseline-shift="sub" font-size="10.00">PMIC</text>
<text xml:space="preserve" text-anchor="start" x="218.82" y="-8.63" font-family="Helvetica,sans-Serif" font-size="10.00">=</text>
<text xml:space="preserve" text-anchor="start" x="224.82" y="-8.63" font-family="Helvetica,sans-Serif" font-style="italic" font-size="10.00">η</text>
<text xml:space="preserve" text-anchor="start" x="230.82" y="-8.63" font-family="Helvetica,sans-Serif" baseline-shift="sub" font-size="10.00">0</text>
</g>
<!-- p_device&#45;&gt;pmic -->
<g id="edge2" class="edge">
<title>p_device&#45;&gt;pmic</title>
<path fill="none" stroke="#334155" d="M131.4,-20.88C144.87,-20.88 160.74,-20.88 174.95,-20.88"/>
<polygon fill="#334155" stroke="#334155" points="174.93,-23.86 183.43,-20.88 174.93,-17.91 174.93,-23.86"/>
<text xml:space="preserve" text-anchor="start" x="137.44" y="-26.43" font-family="Helvetica,sans-Serif" font-size="11.00" fill="#64748b"> </text>
<text xml:space="preserve" text-anchor="start" x="140.44" y="-26.43" font-family="Helvetica,sans-Serif" font-size="11.00" fill="#64748b">/ </text>
<text xml:space="preserve" text-anchor="start" x="146.44" y="-26.43" font-family="Helvetica,sans-Serif" font-style="italic" font-size="11.00" fill="#64748b">η</text>
<text xml:space="preserve" text-anchor="start" x="153.19" y="-26.43" font-family="Helvetica,sans-Serif" baseline-shift="sub" font-size="11.00" fill="#64748b">PMIC</text>
<text xml:space="preserve" text-anchor="start" x="175.69" y="-26.43" font-family="Helvetica,sans-Serif" font-size="11.00" fill="#64748b"> </text>
</g>
<!-- p_batt -->
<g id="node4" class="node">
<title>p_batt</title>
<path fill="#e0f2fe" stroke="#334155" stroke-width="1.05" d="M311.94,-38.88C311.94,-38.88 281.94,-38.88 281.94,-38.88 275.94,-38.88 269.94,-32.88 269.94,-26.88 269.94,-26.88 269.94,-14.88 269.94,-14.88 269.94,-8.88 275.94,-2.88 281.94,-2.88 281.94,-2.88 311.94,-2.88 311.94,-2.88 317.94,-2.88 323.94,-8.88 323.94,-14.88 323.94,-14.88 323.94,-26.88 323.94,-26.88 323.94,-32.88 317.94,-38.88 311.94,-38.88"/>
<text xml:space="preserve" text-anchor="start" x="276.32" y="-16.85" font-family="Helvetica,sans-Serif" font-size="12.00"> </text>
<text xml:space="preserve" text-anchor="start" x="279.32" y="-16.85" font-family="Helvetica,sans-Serif" font-style="italic" font-size="12.00">P</text>
<text xml:space="preserve" text-anchor="start" x="287.57" y="-16.85" font-family="Helvetica,sans-Serif" baseline-shift="sub" font-size="12.00">batt</text>
<text xml:space="preserve" text-anchor="start" x="304.07" y="-16.85" font-family="Helvetica,sans-Serif" font-size="12.00">(t) </text>
</g>
<!-- pmic&#45;&gt;p_batt -->
<g id="edge3" class="edge">
<title>pmic&#45;&gt;p_batt</title>
<path fill="none" stroke="#334155" d="M243.12,-20.88C248.64,-20.88 254.16,-20.88 259.68,-20.88"/>
<polygon fill="#334155" stroke="#334155" points="259.6,-23.86 268.1,-20.88 259.6,-17.91 259.6,-23.86"/>
</g>
</g>
</svg>
