<?xml version="1.0" encoding="UTF-8" standalone="no"?>
<!DOCTYPE svg PUBLIC "-//W3C//DTD SVG 1.1//EN"
 "http://www.w3.org/Graphics/SVG/1.1/DTD/svg11.dtd">
<!-- Generated by graphviz version 14.1.2 (20260124.0452)
 -->
<!-- Title: fig01_power_model_paper_v5_list_compact Pages: 1 -->
<svg width="480pt" height="192pt"
 viewBox="0.00 0.00 480.00 192.00" xmlns="http://www.w3.org/2000/svg" xmlns:xlink="http://www.w3.org/1999/xlink">
<g id="graph0" class="graph" transform="scale(1 1) rotate(0) translate(7.2 184.95)">
<title>fig01_power_model_paper_v5_list_compact</title>
<!-- components -->
<g id="node1" class="node">
<title>components</title>
<path fill="#f1f5f9" stroke="#334155" stroke-width="1.1" d="M104.14,-177.75C104.14,-177.75 12,-177.75 12,-177.75 6,-177.75 0,-171.75 0,-165.75 0,-165.75 0,-62.25 0,-62.25 0,-56.24 6,-50.24 12,-50.24 12,-50.24 104.14,-50.24 104.14,-50.24 110.14,-50.24 116.14,-56.24 116.14,-62.24 116.14,-62.24 116.14,-165.75 116.14,-165.75 116.14,-171.75 110.14,-177.75 104.14,-177.75"/>
<text xml:space="preserve" text-anchor="start" x="11.32" y="-157.47" font-family="Helvetica,sans-Serif" font-weight="bold" font-size="12.00">Device power</text>
<polygon fill="#e2e8f0" stroke="none" points="7.32,-127.38 7.32,-148.12 49.82,-148.12 49.82,-127.38 7.32,-127.38"/>
<text xml:space="preserve" text-anchor="start" x="13.94" y="-133.72" font-family="Helvetica,sans-Serif" font-style="italic" font-size="12.00">P</text>
<text xml:space="preserve" text-anchor="start" x="22.19" y="-133.72" font-family="Helvetica,sans-Serif" baseline-shift="sub" font-size="12.00">base</text>
<polygon fill="#dbeafe" stroke="none" points="52.82,-127.38 52.82,-148.12 108.82,-148.12 108.82,-127.38 52.82,-127.38"/>
<text xml:space="preserve" text-anchor="start" x="56.82" y="-133.72" font-family="Helvetica,sans-Serif" font-style="italic" font-size="12.00">P</text>
<text xml:space="preserve" text-anchor="start" x="65.07" y="-133.72" font-family="Helvetica,sans-Serif" baseline-shift="sub" font-size="12.00">screen</text>
<text xml:space="preserve" text-anchor="start" x="94.32" y="-133.72" font-family="Helvetica,sans-Serif" font-size="12.00">(t)</text>
<polygon fill="#dcfce7" stroke="none" points="7.32,-103.62 7.32,-124.38 49.82,-124.38 49.82,-103.62 7.32,-103.62"/>
<text xml:space="preserve" text-anchor="start" x="11.32" y="-109.97" font-family="Helvetica,sans-Serif" font-style="italic" font-size="12.00">P</text>
<text xml:space="preserve" text-anchor="start" x="19.57" y="-109.97" font-family="Helvetica,sans-Serif" baseline-shift="sub" font-size="12.00">cpu</text>
<text xml:space="preserve" text-anchor="start" x="35.32" y="-109.97" font-family="Helvetica,sans-Serif" font-size="12.00">(t)</text>
<polygon fill="#dcfce7" stroke="none" points="52.82,-103.62 52.82,-124.38 108.82,-124.38 108.82,-103.62 52.82,-103.62"/>
<text xml:space="preserve" text-anchor="start" x="63.57" y="-109.97" font-family="Helvetica,sans-Serif" font-style="italic" font-size="12.00">P</text>
<text xml:space="preserve" text-anchor="start" x="71.82" y="-109.97" font-family="Helvetica,sans-Serif" baseline-shift="sub" font-size="12.00">gpu</text>
<text xml:space="preserve" text-anchor="start" x="87.57" y="-109.97" font-family="Helvetica,sans-Serif" font-size="12.00">(t)</text>
<polygon fill="#ffe4e6" stroke="none" points="7.32,-79.88 7.32,-100.62 49.82,-100.62 49.82,-79.88 7.32,-79.88"/>
<text xml:space="preserve" text-anchor="start" x="12.44" y="-86.22" font-family="Helvetica,sans-Serif" font-style="italic" font-size="12.00">P</text>
<text xml:space="preserve" text-anchor="start" x="20.69" y="-86.22" font-family="Helvetica,sans-Serif" baseline-shift="sub" font-size="12.00">net</text>
<text xml:space="preserve" text-anchor="start" x="34.19" y="-86.22" font-family="Helvetica,sans-Serif" font-size="12.00">(t)</text>
<polygon fill="#ffe4e6" stroke="none" points="52.82,-79.88 52.82,-100.62 108.82,-100.62 108.82,-79.88 52.82,-79.88"/>
<text xml:space="preserve" text-anchor="start" x="63.57" y="-86.22" font-family="Helvetica,sans-Serif" font-style="italic" font-size="12.00">P</text>
<text xml:space="preserve" text-anchor="start" x="71.82" y="-86.22" font-family="Helvetica,sans-Serif" baseline-shift="sub" font-size="12.00">gps</text>
<text xml:space="preserve" text-anchor="start" x="87.57" y="-86.22" font-family="Helvetica,sans-Serif" font-size="12.00">(t)</text>
<polygon fill="#fef9c3" stroke="none" points="7.32,-56.12 7.32,-76.88 49.82,-76.88 49.82,-56.12 7.32,-56.12"/>
<text xml:space="preserve" text-anchor="start" x="13.94" y="-62.48" font-family="Helvetica,sans-Serif" font-style="italic" font-size="12.00">P</text>
<text xml:space="preserve" text-anchor="start" x="22.19" y="-62.48" font-family="Helvetica,sans-Serif" baseline-shift="sub" font-size="12.00">bg</text>
<text xml:space="preserve" text-anchor="start" x="32.69" y="-62.48" font-family="Helvetica,sans-Serif" font-size="12.00">(t)</text>
<polygon fill="#fef9c3" stroke="none" points="52.82,-56.12 52.82,-76.88 108.82,-76.88 108.82,-56.12 52.82,-56.12"/>
<text xml:space="preserve" text-anchor="start" x="66.19" y="-62.48" font-family="Helvetica,sans-Serif" font-style="italic" font-size="12.00">P</text>
<text xml:space="preserve" text-anchor="start" x="74.44" y="-62.48" font-family="Helvetica,sans-Serif" baseline-shift="sub" font-size="12.00">int</text>
<text xml:space="preserve" text-anchor="start" x="84.94" y="-62.48" font-family="Helvetica,sans-Serif" font-size="12.00">(t)</text>
</g>
<!-- sum -->
<g id="node2" class="node">
<title>sum</title>
<ellipse fill="#ffffff" stroke="#334155" stroke-width="1.1" cx="156.1" cy="-114" rx="12.96" ry="12.96"/>
<text xml:space="preserve" text-anchor="start" x="151.97" y="-108.2" font-family="Helvetica,sans-Serif" font-size="14.00">Σ</text>
</g>
<!-- components&#45;&gt;sum -->
<g id="edge1" class="edge">
<title>components&#45;&gt;sum</title>
<path fill="none" stroke="#334155" d="M116.59,-114C122.32,-114 127.86,-114 132.87,-114"/>
<polygon fill="#334155" stroke="#334155" points="132.83,-116.98 141.33,-114 132.83,-111.03 132.83,-116.98"/>
</g>
<!-- p_device -->
<g id="node3" class="node">
<title>p_device</title>
<path fill="#e0e7ff" stroke="#334155" stroke-width="1.1" d="M251.7,-132C251.7,-132 213.81,-132 213.81,-132 207.81,-132 201.81,-126 201.81,-120 201.81,-120 201.81,-108 201.81,-108 201.81,-102 207.81,-96 213.81,-96 213.81,-96 251.7,-96 251.7,-96 257.7,-96 263.7,-102 263.7,-108 263.7,-108 263.7,-120 263.7,-120 263.7,-126 257.7,-132 251.7,-132"/>
<text xml:space="preserve" text-anchor="start" x="206.13" y="-109.97" font-family="Helvetica,sans-Serif" font-size="12.00"> </text>
<text xml:space="preserve" text-anchor="start" x="209.13" y="-109.97" font-family="Helvetica,sans-Serif" font-style="italic" font-size="12.00">P</text>
<text xml:space="preserve" text-anchor="start" x="217.38" y="-109.97" font-family="Helvetica,sans-Serif" baseline-shift="sub" font-size="12.00">device</text>
<text xml:space="preserve" text-anchor="start" x="245.88" y="-109.97" font-family="Helvetica,sans-Serif" font-size="12.00">(t) </text>
</g>
<!-- sum&#45;&gt;p_device -->
<g id="edge2" class="edge">
<title>sum&#45;&gt;p_device</title>
<path fill="none" stroke="#334155" d="M169.43,-114C175.61,-114 183.49,-114 191.54,-114"/>
<polygon fill="#334155" stroke="#334155" points="191.35,-116.98 199.85,-114 191.35,-111.03 191.35,-116.98"/>
<text xml:space="preserve" text-anchor="middle" x="185.43" y="-115.55" font-family="Helvetica,sans-Serif" font-size="11.00" fill="#64748b">=</text>
</g>
<!-- pmic -->
<g id="node4" class="node">
<title>pmic</title>
<path fill="#ffffff" stroke="#334155" stroke-width="1.1" d="M372.95,-132C372.95,-132 342.95,-132 342.95,-132 336.95,-132 330.95,-126 330.95,-120 330.95,-120 330.95,-108 330.95,-108 330.95,-102 336.95,-96 342.95,-96 342.95,-96 372.95,-96 372.95,-96 378.95,-96 384.95,-102 384.95,-108 384.95,-108 384.95,-120 384.95,-120 384.95,-126 378.95,-132 372.95,-132"/>
<text xml:space="preserve" text-anchor="middle" x="357.95" y="-108.97" font-family="Helvetica,sans-Serif" font-size="12.00">PMIC</text>
</g>
<!-- p_device&#45;&gt;pmic -->
<g id="edge3" class="edge">
<title>p_device&#45;&gt;pmic</title>
<path fill="none" stroke="#334155" d="M264.21,-114C281.32,-114 302.79,-114 320.76,-114"/>
<polygon fill="#334155" stroke="#334155" points="320.59,-116.98 329.09,-114 320.59,-111.03 320.59,-116.98"/>
<text xml:space="preserve" text-anchor="start" x="276.7" y="-116.55" font-family="Helvetica,sans-Serif" font-size="11.00" fill="#64748b"> </text>
<text xml:space="preserve" text-anchor="start" x="279.7" y="-116.55" font-family="Helvetica,sans-Serif" font-size="11.00" fill="#64748b">/ </text>
<text xml:space="preserve" text-anchor="start" x="285.7" y="-116.55" font-family="Helvetica,sans-Serif" font-style="italic" font-size="11.00" fill="#64748b">η</text>
<text xml:space="preserve" text-anchor="start" x="292.45" y="-116.55" font-family="Helvetica,sans-Serif" baseline-shift="sub" font-size="11.00" fill="#64748b">PMIC</text>
<text xml:space="preserve" text-anchor="start" x="314.95" y="-116.55" font-family="Helvetica,sans-Serif" font-size="11.00" fill="#64748b"> </text>
</g>
<!-- p_batt -->
<g id="node6" class="node">
<title>p_batt</title>
<path fill="#e0f2fe" stroke="#334155" stroke-width="1.1" d="M453.95,-132C453.95,-132 423.95,-132 423.95,-132 417.95,-132 411.95,-126 411.95,-120 411.95,-120 411.95,-108 411.95,-108 411.95,-102 417.95,-96 423.95,-96 423.95,-96 453.95,-96 453.95,-96 459.95,-96 465.95,-102 465.95,-108 465.95,-108 465.95,-120 465.95,-120 465.95,-126 459.95,-132 453.95,-132"/>
<text xml:space="preserve" text-anchor="start" x="418.32" y="-109.97" font-family="Helvetica,sans-Serif" font-size="12.00"> </text>
<text xml:space="preserve" text-anchor="start" x="421.32" y="-109.97" font-family="Helvetica,sans-Serif" font-style="italic" font-size="12.00">P</text>
<text xml:space="preserve" text-anchor="start" x="429.57" y="-109.97" font-family="Helvetica,sans-Serif" baseline-shift="sub" font-size="12.00">batt</text>
<text xml:space="preserve" text-anchor="start" x="446.07" y="-109.97" font-family="Helvetica,sans-Serif" font-size="12.00">(t) </text>
</g>
<!-- pmic&#45;&gt;p_batt -->
<g id="edge5" class="edge">
<title>pmic&#45;&gt;p_batt</title>
<path fill="none" stroke="#334155" d="M385.26,-114C390.53,-114 396.16,-114 401.7,-114"/>
<polygon fill="#334155" stroke="#334155" points="401.48,-116.98 409.98,-114 401.48,-111.03 401.48,-116.98"/>
</g>
<!-- eta -->
<g id="node5" class="node">
<title>eta</title>
<polygon fill="#ffffff" stroke="#475569" stroke-width="1.1" points="86.39,-36 23.75,-36 23.75,0 92.39,0 92.39,-30 86.39,-36"/>
<polyline fill="none" stroke="#475569" stroke-width="1.1" points="86.39,-36 86.39,-30"/>
<polyline fill="none" stroke="#475569" stroke-width="1.1" points="92.39,-30 86.39,-30"/>
<text xml:space="preserve" text-anchor="start" x="28.07" y="-14.55" font-family="Helvetica,sans-Serif" font-size="11.00" fill="#0f172a"> </text>
<text xml:space="preserve" text-anchor="start" x="31.07" y="-14.55" font-family="Helvetica,sans-Serif" font-style="italic" font-size="11.00" fill="#0f172a">η</text>
<text xml:space="preserve" text-anchor="start" x="37.82" y="-14.55" font-family="Helvetica,sans-Serif" baseline-shift="sub" font-size="11.00" fill="#0f172a">PMIC</text>
<text xml:space="preserve" text-anchor="start" x="60.32" y="-14.55" font-family="Helvetica,sans-Serif" font-size="11.00" fill="#0f172a"> = </text>
<text xml:space="preserve" text-anchor="start" x="73.07" y="-14.55" font-family="Helvetica,sans-Serif" font-style="italic" font-size="11.00" fill="#0f172a">η</text>
<text xml:space="preserve" text-anchor="start" x="79.82" y="-14.55" font-family="Helvetica,sans-Serif" baseline-shift="sub" font-size="11.00" fill="#0f172a">0</text>
<text xml:space="preserve" text-anchor="start" x="85.07" y="-14.55" font-family="Helvetica,sans-Serif" font-size="11.00" fill="#0f172a"> </text>
</g>
<!-- eta&#45;&gt;pmic -->
<g id="edge4" class="edge">
<title>eta&#45;&gt;pmic</title>
<path fill="none" stroke="#94a3b8" stroke-dasharray="5,2" d="M92.66,-28.83C152.46,-48.1 276.17,-87.97 330.45,-105.46"/>
</g>
</g>
</svg>
