<?xml version="1.0" encoding="UTF-8" standalone="no"?>
<!DOCTYPE svg PUBLIC "-//W3C//DTD SVG 1.1//EN"
 "http://www.w3.org/Graphics/SVG/1.1/DTD/svg11.dtd">
<!-- Generated by graphviz version 14.1.2 (20260124.0452)
 -->
<!-- Title: fig01_power_model_paper_v23_tb_card_no_t_wrap_eta_tight Pages: 1 -->
<svg width="238pt" height="109pt"
 viewBox="0.00 0.00 238.00 109.00" xmlns="http://www.w3.org/2000/svg" xmlns:xlink="http://www.w3.org/1999/xlink">
<g id="graph0" class="graph" transform="scale(1 1) rotate(0) translate(3.6 105.42)">
<title>fig01_power_model_paper_v23_tb_card_no_t_wrap_eta_tight</title>
<!-- components -->
<g id="node1" class="node">
<title>components</title>
<path fill="#f1f5f9" stroke="#334155" d="M125.95,-101.82C125.95,-101.82 12,-101.82 12,-101.82 6,-101.82 0,-95.82 0,-89.82 0,-89.82 0,-76 0,-76 0,-70 6,-64 12,-64 12,-64 125.95,-64 125.95,-64 131.95,-64 137.95,-70 137.95,-76 137.95,-76 137.95,-89.82 137.95,-89.82 137.95,-95.82 131.95,-101.82 125.95,-101.82"/>
<polygon fill="#e2e8f0" stroke="none" points="3.6,-82.91 3.6,-99.66 36.85,-99.66 36.85,-82.91 3.6,-82.91"/>
<text xml:space="preserve" text-anchor="start" x="5.6" y="-87.26" font-family="Helvetica,sans-Serif" font-style="italic" font-size="12.00">P</text>
<text xml:space="preserve" text-anchor="start" x="13.85" y="-87.26" font-family="Helvetica,sans-Serif" baseline-shift="sub" font-size="12.00">base</text>
<polygon fill="#dbeafe" stroke="none" points="36.85,-82.91 36.85,-99.66 78.35,-99.66 78.35,-82.91 36.85,-82.91"/>
<text xml:space="preserve" text-anchor="start" x="38.85" y="-87.26" font-family="Helvetica,sans-Serif" font-style="italic" font-size="12.00">P</text>
<text xml:space="preserve" text-anchor="start" x="47.1" y="-87.26" font-family="Helvetica,sans-Serif" baseline-shift="sub" font-size="12.00">screen</text>
<polygon fill="#dcfce7" stroke="none" points="78.35,-82.91 78.35,-99.66 106.35,-99.66 106.35,-82.91 78.35,-82.91"/>
<text xml:space="preserve" text-anchor="start" x="80.35" y="-87.26" font-family="Helvetica,sans-Serif" font-style="italic" font-size="12.00">P</text>
<text xml:space="preserve" text-anchor="start" x="88.6" y="-87.26" font-family="Helvetica,sans-Serif" baseline-shift="sub" font-size="12.00">cpu</text>
<polygon fill="#dcfce7" stroke="none" points="106.35,-82.91 106.35,-99.66 134.35,-99.66 134.35,-82.91 106.35,-82.91"/>
<text xml:space="preserve" text-anchor="start" x="108.35" y="-87.26" font-family="Helvetica,sans-Serif" font-style="italic" font-size="12.00">P</text>
<text xml:space="preserve" text-anchor="start" x="116.6" y="-87.26" font-family="Helvetica,sans-Serif" baseline-shift="sub" font-size="12.00">gpu</text>
<polygon fill="#ffe4e6" stroke="none" points="3.6,-66.16 3.6,-82.91 36.85,-82.91 36.85,-66.16 3.6,-66.16"/>
<text xml:space="preserve" text-anchor="start" x="9.35" y="-70.51" font-family="Helvetica,sans-Serif" font-style="italic" font-size="12.00">P</text>
<text xml:space="preserve" text-anchor="start" x="17.6" y="-70.51" font-family="Helvetica,sans-Serif" baseline-shift="sub" font-size="12.00">net</text>
<polygon fill="#ffe4e6" stroke="none" points="36.85,-66.16 36.85,-82.91 78.35,-82.91 78.35,-66.16 36.85,-66.16"/>
<text xml:space="preserve" text-anchor="start" x="45.6" y="-70.51" font-family="Helvetica,sans-Serif" font-style="italic" font-size="12.00">P</text>
<text xml:space="preserve" text-anchor="start" x="53.85" y="-70.51" font-family="Helvetica,sans-Serif" baseline-shift="sub" font-size="12.00">gps</text>
<polygon fill="#fef9c3" stroke="none" points="78.35,-66.16 78.35,-82.91 106.35,-82.91 106.35,-66.16 78.35,-66.16"/>
<text xml:space="preserve" text-anchor="start" x="82.97" y="-70.51" font-family="Helvetica,sans-Serif" font-style="italic" font-size="12.00">P</text>
<text xml:space="preserve" text-anchor="start" x="91.22" y="-70.51" font-family="Helvetica,sans-Serif" baseline-shift="sub" font-size="12.00">bg</text>
<polygon fill="#fef9c3" stroke="none" points="106.35,-66.16 106.35,-82.91 134.35,-82.91 134.35,-66.16 106.35,-66.16"/>
<text xml:space="preserve" text-anchor="start" x="110.97" y="-70.51" font-family="Helvetica,sans-Serif" font-style="italic" font-size="12.00">P</text>
<text xml:space="preserve" text-anchor="start" x="119.22" y="-70.51" font-family="Helvetica,sans-Serif" baseline-shift="sub" font-size="12.00">int</text>
</g>
<!-- p_device -->
<g id="node2" class="node">
<title>p_device</title>
<path fill="#e0e7ff" stroke="#334155" d="M87.2,-36C87.2,-36 50.75,-36 50.75,-36 44.75,-36 38.75,-30 38.75,-24 38.75,-24 38.75,-12 38.75,-12 38.75,-6 44.75,0 50.75,0 50.75,0 87.2,0 87.2,0 93.2,0 99.2,-6 99.2,-12 99.2,-12 99.2,-24 99.2,-24 99.2,-30 93.2,-36 87.2,-36"/>
<text xml:space="preserve" text-anchor="start" x="42.35" y="-13.97" font-family="Helvetica,sans-Serif" font-size="12.00"> </text>
<text xml:space="preserve" text-anchor="start" x="45.35" y="-13.97" font-family="Helvetica,sans-Serif" font-style="italic" font-size="12.00">P</text>
<text xml:space="preserve" text-anchor="start" x="53.6" y="-13.97" font-family="Helvetica,sans-Serif" baseline-shift="sub" font-size="12.00">device</text>
<text xml:space="preserve" text-anchor="start" x="82.1" y="-13.97" font-family="Helvetica,sans-Serif" font-size="12.00">(t) </text>
</g>
<!-- components&#45;&gt;p_device -->
<g id="edge1" class="edge">
<title>components&#45;&gt;p_device</title>
<path fill="none" stroke="#334155" d="M68.97,-63.71C68.97,-58.13 68.97,-51.87 68.97,-45.84"/>
<polygon fill="#334155" stroke="#334155" points="71.92,-45.99 68.98,-37.59 66.04,-45.99 71.92,-45.99"/>
<text xml:space="preserve" text-anchor="start" x="68.97" y="-46.55" font-family="Helvetica,sans-Serif" font-size="11.00" fill="#64748b"> </text>
<text xml:space="preserve" text-anchor="start" x="71.97" y="-46.55" font-family="Helvetica,sans-Serif" font-size="10.00" fill="#64748b">Σ</text>
<text xml:space="preserve" text-anchor="start" x="77.97" y="-46.55" font-family="Helvetica,sans-Serif" font-size="11.00" fill="#64748b"> </text>
</g>
<!-- p_batt -->
<g id="node3" class="node">
<title>p_batt</title>
<path fill="#e0f2fe" stroke="#334155" d="M218.97,-36C218.97,-36 188.97,-36 188.97,-36 182.97,-36 176.97,-30 176.97,-24 176.97,-24 176.97,-12 176.97,-12 176.97,-6 182.97,0 188.97,0 188.97,0 218.97,0 218.97,0 224.97,0 230.97,-6 230.97,-12 230.97,-12 230.97,-24 230.97,-24 230.97,-30 224.97,-36 218.97,-36"/>
<text xml:space="preserve" text-anchor="start" x="183.35" y="-13.97" font-family="Helvetica,sans-Serif" font-size="12.00"> </text>
<text xml:space="preserve" text-anchor="start" x="186.35" y="-13.97" font-family="Helvetica,sans-Serif" font-style="italic" font-size="12.00">P</text>
<text xml:space="preserve" text-anchor="start" x="194.6" y="-13.97" font-family="Helvetica,sans-Serif" baseline-shift="sub" font-size="12.00">batt</text>
<text xml:space="preserve" text-anchor="start" x="211.1" y="-13.97" font-family="Helvetica,sans-Serif" font-size="12.00">(t) </text>
</g>
<!-- p_device&#45;&gt;p_batt -->
<g id="edge2" class="edge">
<title>p_device&#45;&gt;p_batt</title>
<path fill="none" stroke="#334155" d="M99.61,-18C119.62,-18 145.87,-18 167.04,-18"/>
<polygon fill="#334155" stroke="#334155" points="166.75,-20.94 175.15,-18 166.75,-15.06 166.75,-20.94"/>
<text xml:space="preserve" text-anchor="start" x="111.46" y="-33.55" font-family="Helvetica,sans-Serif" font-size="11.00" fill="#64748b"> &#160;&#160;&#160;&#160;&#160;</text>
<text xml:space="preserve" text-anchor="start" x="129.46" y="-33.55" font-family="Helvetica,sans-Serif" font-size="11.00" fill="#64748b">/ </text>
<text xml:space="preserve" text-anchor="start" x="135.46" y="-33.55" font-family="Helvetica,sans-Serif" font-style="italic" font-size="11.00" fill="#64748b">η</text>
<text xml:space="preserve" text-anchor="start" x="142.21" y="-33.55" font-family="Helvetica,sans-Serif" baseline-shift="sub" font-size="11.00" fill="#64748b">PMIC</text>
<text xml:space="preserve" text-anchor="start" x="103.59" y="-22.55" font-family="Helvetica,sans-Serif" font-size="11.00" fill="#64748b"> &#160;&#160;&#160;&#160;&#160;</text>
<text xml:space="preserve" text-anchor="start" x="121.59" y="-22.55" font-family="Helvetica,sans-Serif" font-style="italic" font-size="9.00" fill="#64748b">η</text>
<text xml:space="preserve" text-anchor="start" x="126.84" y="-22.55" font-family="Helvetica,sans-Serif" baseline-shift="sub" font-size="9.00" fill="#64748b">PMIC</text>
<text xml:space="preserve" text-anchor="start" x="145.59" y="-22.55" font-family="Helvetica,sans-Serif" font-size="9.00" fill="#64748b">=</text>
<text xml:space="preserve" text-anchor="start" x="150.84" y="-22.55" font-family="Helvetica,sans-Serif" font-style="italic" font-size="9.00" fill="#64748b">η</text>
<text xml:space="preserve" text-anchor="start" x="156.09" y="-22.55" font-family="Helvetica,sans-Serif" baseline-shift="sub" font-size="9.00" fill="#64748b">0</text>
<text xml:space="preserve" text-anchor="start" x="160.59" y="-22.55" font-family="Helvetica,sans-Serif" font-size="11.00" fill="#64748b"> &#160;&#160;&#160;</text>
</g>
</g>
</svg>
