<?xml version="1.0" encoding="UTF-8" standalone="no"?>
<!DOCTYPE svg PUBLIC "-//W3C//DTD SVG 1.1//EN"
 "http://www.w3.org/Graphics/SVG/1.1/DTD/svg11.dtd">
<!-- Generated by graphviz version 14.1.2 (20260124.0452)
 -->
<!-- Title: fig01_power_model_paper_v17_tb_grid3x3_row_direct Pages: 1 -->
<svg width="260pt" height="166pt"
 viewBox="0.00 0.00 260.00 166.00" xmlns="http://www.w3.org/2000/svg" xmlns:xlink="http://www.w3.org/1999/xlink">
<g id="graph0" class="graph" transform="scale(1 1) rotate(0) translate(5.76 159.77)">
<title>fig01_power_model_paper_v17_tb_grid3x3_row_direct</title>
<!-- components -->
<g id="node1" class="node">
<title>components</title>
<path fill="#f1f5f9" stroke="#334155" stroke-width="1.05" d="M139.64,-154.01C139.64,-154.01 12,-154.01 12,-154.01 6,-154.01 0,-148.01 0,-142.01 0,-142.01 0,-76 0,-76 0,-70 6,-64 12,-64 12,-64 139.64,-64 139.64,-64 145.64,-64 151.64,-70 151.64,-76 151.64,-76 151.64,-142.01 151.64,-142.01 151.64,-148.01 145.64,-154.01 139.64,-154.01"/>
<text xml:space="preserve" text-anchor="start" x="9.32" y="-136.68" font-family="Helvetica,sans-Serif" font-weight="bold" font-size="11.00">Components</text>
<polygon fill="#e2e8f0" stroke="none" points="6.32,-110.38 6.32,-129.13 46.82,-129.13 46.82,-110.38 6.32,-110.38"/>
<text xml:space="preserve" text-anchor="start" x="11.94" y="-115.73" font-family="Helvetica,sans-Serif" font-style="italic" font-size="12.00">P</text>
<text xml:space="preserve" text-anchor="start" x="20.19" y="-115.73" font-family="Helvetica,sans-Serif" baseline-shift="sub" font-size="12.00">base</text>
<polygon fill="#dbeafe" stroke="none" points="48.82,-110.38 48.82,-129.13 102.82,-129.13 102.82,-110.38 48.82,-110.38"/>
<text xml:space="preserve" text-anchor="start" x="51.82" y="-115.73" font-family="Helvetica,sans-Serif" font-style="italic" font-size="12.00">P</text>
<text xml:space="preserve" text-anchor="start" x="60.07" y="-115.73" font-family="Helvetica,sans-Serif" baseline-shift="sub" font-size="12.00">screen</text>
<text xml:space="preserve" text-anchor="start" x="89.32" y="-115.73" font-family="Helvetica,sans-Serif" font-size="12.00">(t)</text>
<polygon fill="#dcfce7" stroke="none" points="104.82,-110.38 104.82,-129.13 145.32,-129.13 145.32,-110.38 104.82,-110.38"/>
<text xml:space="preserve" text-anchor="start" x="107.82" y="-115.73" font-family="Helvetica,sans-Serif" font-style="italic" font-size="12.00">P</text>
<text xml:space="preserve" text-anchor="start" x="116.07" y="-115.73" font-family="Helvetica,sans-Serif" baseline-shift="sub" font-size="12.00">cpu</text>
<text xml:space="preserve" text-anchor="start" x="131.82" y="-115.73" font-family="Helvetica,sans-Serif" font-size="12.00">(t)</text>
<polygon fill="#dcfce7" stroke="none" points="6.32,-89.63 6.32,-108.38 46.82,-108.38 46.82,-89.63 6.32,-89.63"/>
<text xml:space="preserve" text-anchor="start" x="9.32" y="-94.98" font-family="Helvetica,sans-Serif" font-style="italic" font-size="12.00">P</text>
<text xml:space="preserve" text-anchor="start" x="17.57" y="-94.98" font-family="Helvetica,sans-Serif" baseline-shift="sub" font-size="12.00">gpu</text>
<text xml:space="preserve" text-anchor="start" x="33.32" y="-94.98" font-family="Helvetica,sans-Serif" font-size="12.00">(t)</text>
<polygon fill="#ffe4e6" stroke="none" points="48.82,-89.63 48.82,-108.38 102.82,-108.38 102.82,-89.63 48.82,-89.63"/>
<text xml:space="preserve" text-anchor="start" x="59.69" y="-94.98" font-family="Helvetica,sans-Serif" font-style="italic" font-size="12.00">P</text>
<text xml:space="preserve" text-anchor="start" x="67.94" y="-94.98" font-family="Helvetica,sans-Serif" baseline-shift="sub" font-size="12.00">net</text>
<text xml:space="preserve" text-anchor="start" x="81.44" y="-94.98" font-family="Helvetica,sans-Serif" font-size="12.00">(t)</text>
<polygon fill="#ffe4e6" stroke="none" points="104.82,-89.63 104.82,-108.38 145.32,-108.38 145.32,-89.63 104.82,-89.63"/>
<text xml:space="preserve" text-anchor="start" x="107.82" y="-94.98" font-family="Helvetica,sans-Serif" font-style="italic" font-size="12.00">P</text>
<text xml:space="preserve" text-anchor="start" x="116.07" y="-94.98" font-family="Helvetica,sans-Serif" baseline-shift="sub" font-size="12.00">gps</text>
<text xml:space="preserve" text-anchor="start" x="131.82" y="-94.98" font-family="Helvetica,sans-Serif" font-size="12.00">(t)</text>
<polygon fill="#fef9c3" stroke="none" points="6.32,-68.88 6.32,-87.63 46.82,-87.63 46.82,-68.88 6.32,-68.88"/>
<text xml:space="preserve" text-anchor="start" x="11.94" y="-74.23" font-family="Helvetica,sans-Serif" font-style="italic" font-size="12.00">P</text>
<text xml:space="preserve" text-anchor="start" x="20.19" y="-74.23" font-family="Helvetica,sans-Serif" baseline-shift="sub" font-size="12.00">bg</text>
<text xml:space="preserve" text-anchor="start" x="30.69" y="-74.23" font-family="Helvetica,sans-Serif" font-size="12.00">(t)</text>
<polygon fill="#fef9c3" stroke="none" points="48.82,-68.88 48.82,-87.63 102.82,-87.63 102.82,-68.88 48.82,-68.88"/>
<text xml:space="preserve" text-anchor="start" x="61.19" y="-74.23" font-family="Helvetica,sans-Serif" font-style="italic" font-size="12.00">P</text>
<text xml:space="preserve" text-anchor="start" x="69.44" y="-74.23" font-family="Helvetica,sans-Serif" baseline-shift="sub" font-size="12.00">int</text>
<text xml:space="preserve" text-anchor="start" x="79.94" y="-74.23" font-family="Helvetica,sans-Serif" font-size="12.00">(t)</text>
<polygon fill="#f1f5f9" stroke="none" points="104.82,-68.88 104.82,-87.63 145.32,-87.63 145.32,-68.88 104.82,-68.88"/>
<text xml:space="preserve" text-anchor="start" x="123.57" y="-73.23" font-family="Helvetica,sans-Serif" font-size="12.00"> </text>
</g>
<!-- p_device -->
<g id="node2" class="node">
<title>p_device</title>
<path fill="#e0e7ff" stroke="#334155" stroke-width="1.05" d="M94.76,-36C94.76,-36 56.87,-36 56.87,-36 50.88,-36 44.87,-30 44.87,-24 44.87,-24 44.87,-12 44.87,-12 44.87,-6 50.87,0 56.87,0 56.87,0 94.76,0 94.76,0 100.76,0 106.76,-6 106.76,-12 106.76,-12 106.76,-24 106.76,-24 106.76,-30 100.76,-36 94.76,-36"/>
<text xml:space="preserve" text-anchor="start" x="49.19" y="-13.97" font-family="Helvetica,sans-Serif" font-size="12.00"> </text>
<text xml:space="preserve" text-anchor="start" x="52.19" y="-13.97" font-family="Helvetica,sans-Serif" font-style="italic" font-size="12.00">P</text>
<text xml:space="preserve" text-anchor="start" x="60.44" y="-13.97" font-family="Helvetica,sans-Serif" baseline-shift="sub" font-size="12.00">device</text>
<text xml:space="preserve" text-anchor="start" x="88.94" y="-13.97" font-family="Helvetica,sans-Serif" font-size="12.00">(t) </text>
</g>
<!-- components&#45;&gt;p_device -->
<g id="edge1" class="edge">
<title>components&#45;&gt;p_device</title>
<path fill="none" stroke="#334155" d="M75.82,-63.5C75.82,-57.57 75.82,-51.64 75.82,-46.13"/>
<polygon fill="#334155" stroke="#334155" points="78.8,-46.17 75.82,-37.67 72.85,-46.17 78.8,-46.17"/>
<text xml:space="preserve" text-anchor="start" x="75.82" y="-46.55" font-family="Helvetica,sans-Serif" font-size="11.00" fill="#64748b"> </text>
<text xml:space="preserve" text-anchor="start" x="78.82" y="-46.55" font-family="Helvetica,sans-Serif" font-size="10.00" fill="#64748b">Σ</text>
<text xml:space="preserve" text-anchor="start" x="84.82" y="-46.55" font-family="Helvetica,sans-Serif" font-size="11.00" fill="#64748b"> </text>
</g>
<!-- p_batt -->
<g id="node3" class="node">
<title>p_batt</title>
<path fill="#e0f2fe" stroke="#334155" stroke-width="1.05" d="M236.82,-36C236.82,-36 206.82,-36 206.82,-36 200.82,-36 194.82,-30 194.82,-24 194.82,-24 194.82,-12 194.82,-12 194.82,-6 200.82,0 206.82,0 206.82,0 236.82,0 236.82,0 242.82,0 248.82,-6 248.82,-12 248.82,-12 248.82,-24 248.82,-24 248.82,-30 242.82,-36 236.82,-36"/>
<text xml:space="preserve" text-anchor="start" x="201.19" y="-13.97" font-family="Helvetica,sans-Serif" font-size="12.00"> </text>
<text xml:space="preserve" text-anchor="start" x="204.19" y="-13.97" font-family="Helvetica,sans-Serif" font-style="italic" font-size="12.00">P</text>
<text xml:space="preserve" text-anchor="start" x="212.44" y="-13.97" font-family="Helvetica,sans-Serif" baseline-shift="sub" font-size="12.00">batt</text>
<text xml:space="preserve" text-anchor="start" x="228.94" y="-13.97" font-family="Helvetica,sans-Serif" font-size="12.00">(t) </text>
</g>
<!-- p_device&#45;&gt;p_batt -->
<g id="edge2" class="edge">
<title>p_device&#45;&gt;p_batt</title>
<path fill="none" stroke="#334155" d="M107.14,-18C129.87,-18 160.7,-18 184.67,-18"/>
<polygon fill="#334155" stroke="#334155" points="184.47,-20.98 192.97,-18 184.47,-15.03 184.47,-20.98"/>
<text xml:space="preserve" text-anchor="start" x="124.17" y="-33.55" font-family="Helvetica,sans-Serif" font-size="11.00" fill="#64748b"> &#160;&#160;&#160;&#160;&#160;</text>
<text xml:space="preserve" text-anchor="start" x="142.17" y="-33.55" font-family="Helvetica,sans-Serif" font-size="11.00" fill="#64748b">/ </text>
<text xml:space="preserve" text-anchor="start" x="148.17" y="-33.55" font-family="Helvetica,sans-Serif" font-style="italic" font-size="11.00" fill="#64748b">η</text>
<text xml:space="preserve" text-anchor="start" x="154.92" y="-33.55" font-family="Helvetica,sans-Serif" baseline-shift="sub" font-size="11.00" fill="#64748b">PMIC</text>
<text xml:space="preserve" text-anchor="start" x="113.29" y="-22.55" font-family="Helvetica,sans-Serif" font-size="11.00" fill="#64748b"> &#160;&#160;&#160;&#160;&#160;</text>
<text xml:space="preserve" text-anchor="start" x="131.29" y="-22.55" font-family="Helvetica,sans-Serif" font-size="9.00" fill="#64748b">(</text>
<text xml:space="preserve" text-anchor="start" x="134.29" y="-22.55" font-family="Helvetica,sans-Serif" font-style="italic" font-size="9.00" fill="#64748b">η</text>
<text xml:space="preserve" text-anchor="start" x="139.54" y="-22.55" font-family="Helvetica,sans-Serif" baseline-shift="sub" font-size="9.00" fill="#64748b">PMIC</text>
<text xml:space="preserve" text-anchor="start" x="158.29" y="-22.55" font-family="Helvetica,sans-Serif" font-size="9.00" fill="#64748b">=</text>
<text xml:space="preserve" text-anchor="start" x="163.54" y="-22.55" font-family="Helvetica,sans-Serif" font-style="italic" font-size="9.00" fill="#64748b">η</text>
<text xml:space="preserve" text-anchor="start" x="168.79" y="-22.55" font-family="Helvetica,sans-Serif" baseline-shift="sub" font-size="9.00" fill="#64748b">0</text>
<text xml:space="preserve" text-anchor="start" x="173.29" y="-22.55" font-family="Helvetica,sans-Serif" font-size="9.00" fill="#64748b">)</text>
<text xml:space="preserve" text-anchor="start" x="176.29" y="-22.55" font-family="Helvetica,sans-Serif" font-size="11.00" fill="#64748b"> &#160;&#160;&#160;</text>
</g>
</g>
</svg>
