<?xml version="1.0" encoding="UTF-8" standalone="no"?>
<!DOCTYPE svg PUBLIC "-//W3C//DTD SVG 1.1//EN"
 "http://www.w3.org/Graphics/SVG/1.1/DTD/svg11.dtd">
<!-- Generated by graphviz version 14.1.2 (20260124.0452)
 -->
<!-- Title: fig01_power_model_paper_v24_tb_ultra_compact Pages: 1 -->
<svg width="215pt" height="106pt"
 viewBox="0.00 0.00 215.00 106.00" xmlns="http://www.w3.org/2000/svg" xmlns:xlink="http://www.w3.org/1999/xlink">
<g id="graph0" class="graph" transform="scale(1 1) rotate(0) translate(2.88 103.26)">
<title>fig01_power_model_paper_v24_tb_ultra_compact</title>
<!-- components -->
<g id="node1" class="node">
<title>components</title>
<path fill="#f1f5f9" stroke="#334155" stroke-width="0.95" d="M124.51,-100.38C124.51,-100.38 12,-100.38 12,-100.38 6,-100.38 0,-94.38 0,-88.38 0,-88.38 0,-76 0,-76 0,-70 6,-64 12,-64 12,-64 124.51,-64 124.51,-64 130.51,-64 136.51,-70 136.51,-76 136.51,-76 136.51,-88.38 136.51,-88.38 136.51,-94.38 130.51,-100.38 124.51,-100.38"/>
<polygon fill="#e2e8f0" stroke="none" points="2.88,-82.19 2.88,-98.94 36.13,-98.94 36.13,-82.19 2.88,-82.19"/>
<text xml:space="preserve" text-anchor="start" x="4.88" y="-86.54" font-family="Helvetica,sans-Serif" font-style="italic" font-size="12.00">P</text>
<text xml:space="preserve" text-anchor="start" x="13.13" y="-86.54" font-family="Helvetica,sans-Serif" baseline-shift="sub" font-size="12.00">base</text>
<polygon fill="#dbeafe" stroke="none" points="36.13,-82.19 36.13,-98.94 77.63,-98.94 77.63,-82.19 36.13,-82.19"/>
<text xml:space="preserve" text-anchor="start" x="38.13" y="-86.54" font-family="Helvetica,sans-Serif" font-style="italic" font-size="12.00">P</text>
<text xml:space="preserve" text-anchor="start" x="46.38" y="-86.54" font-family="Helvetica,sans-Serif" baseline-shift="sub" font-size="12.00">screen</text>
<polygon fill="#dcfce7" stroke="none" points="77.63,-82.19 77.63,-98.94 105.63,-98.94 105.63,-82.19 77.63,-82.19"/>
<text xml:space="preserve" text-anchor="start" x="79.63" y="-86.54" font-family="Helvetica,sans-Serif" font-style="italic" font-size="12.00">P</text>
<text xml:space="preserve" text-anchor="start" x="87.88" y="-86.54" font-family="Helvetica,sans-Serif" baseline-shift="sub" font-size="12.00">cpu</text>
<polygon fill="#dcfce7" stroke="none" points="105.63,-82.19 105.63,-98.94 133.63,-98.94 133.63,-82.19 105.63,-82.19"/>
<text xml:space="preserve" text-anchor="start" x="107.63" y="-86.54" font-family="Helvetica,sans-Serif" font-style="italic" font-size="12.00">P</text>
<text xml:space="preserve" text-anchor="start" x="115.88" y="-86.54" font-family="Helvetica,sans-Serif" baseline-shift="sub" font-size="12.00">gpu</text>
<polygon fill="#ffe4e6" stroke="none" points="2.88,-65.44 2.88,-82.19 36.13,-82.19 36.13,-65.44 2.88,-65.44"/>
<text xml:space="preserve" text-anchor="start" x="8.63" y="-69.79" font-family="Helvetica,sans-Serif" font-style="italic" font-size="12.00">P</text>
<text xml:space="preserve" text-anchor="start" x="16.88" y="-69.79" font-family="Helvetica,sans-Serif" baseline-shift="sub" font-size="12.00">net</text>
<polygon fill="#ffe4e6" stroke="none" points="36.13,-65.44 36.13,-82.19 77.63,-82.19 77.63,-65.44 36.13,-65.44"/>
<text xml:space="preserve" text-anchor="start" x="44.88" y="-69.79" font-family="Helvetica,sans-Serif" font-style="italic" font-size="12.00">P</text>
<text xml:space="preserve" text-anchor="start" x="53.13" y="-69.79" font-family="Helvetica,sans-Serif" baseline-shift="sub" font-size="12.00">gps</text>
<polygon fill="#fef9c3" stroke="none" points="77.63,-65.44 77.63,-82.19 105.63,-82.19 105.63,-65.44 77.63,-65.44"/>
<text xml:space="preserve" text-anchor="start" x="82.25" y="-69.79" font-family="Helvetica,sans-Serif" font-style="italic" font-size="12.00">P</text>
<text xml:space="preserve" text-anchor="start" x="90.5" y="-69.79" font-family="Helvetica,sans-Serif" baseline-shift="sub" font-size="12.00">bg</text>
<polygon fill="#fef9c3" stroke="none" points="105.63,-65.44 105.63,-82.19 133.63,-82.19 133.63,-65.44 105.63,-65.44"/>
<text xml:space="preserve" text-anchor="start" x="110.25" y="-69.79" font-family="Helvetica,sans-Serif" font-style="italic" font-size="12.00">P</text>
<text xml:space="preserve" text-anchor="start" x="118.5" y="-69.79" font-family="Helvetica,sans-Serif" baseline-shift="sub" font-size="12.00">int</text>
</g>
<!-- p_device -->
<g id="node2" class="node">
<title>p_device</title>
<path fill="#e0e7ff" stroke="#334155" stroke-width="0.95" d="M83.25,-36C83.25,-36 53.25,-36 53.25,-36 47.25,-36 41.25,-30 41.25,-24 41.25,-24 41.25,-12 41.25,-12 41.25,-6 47.25,0 53.25,0 53.25,0 83.25,0 83.25,0 89.25,0 95.25,-6 95.25,-12 95.25,-12 95.25,-24 95.25,-24 95.25,-30 89.25,-36 83.25,-36"/>
<text xml:space="preserve" text-anchor="start" x="46.88" y="-13.97" font-family="Helvetica,sans-Serif" font-size="12.00"> </text>
<text xml:space="preserve" text-anchor="start" x="49.88" y="-13.97" font-family="Helvetica,sans-Serif" font-style="italic" font-size="12.00">P</text>
<text xml:space="preserve" text-anchor="start" x="58.13" y="-13.97" font-family="Helvetica,sans-Serif" baseline-shift="sub" font-size="12.00">device</text>
<text xml:space="preserve" text-anchor="start" x="86.63" y="-13.97" font-family="Helvetica,sans-Serif" font-size="12.00"> </text>
</g>
<!-- components&#45;&gt;p_device -->
<g id="edge1" class="edge">
<title>components&#45;&gt;p_device</title>
<path fill="none" stroke="#334155" stroke-width="0.95" d="M68.25,-63.54C68.25,-57.88 68.25,-51.49 68.25,-45.35"/>
<polygon fill="#334155" stroke="#334155" stroke-width="0.95" points="71.13,-45.69 68.26,-37.49 65.39,-45.69 71.13,-45.69"/>
<text xml:space="preserve" text-anchor="start" x="68.25" y="-46.55" font-family="Helvetica,sans-Serif" font-size="11.00" fill="#64748b"> </text>
<text xml:space="preserve" text-anchor="start" x="71.25" y="-46.55" font-family="Helvetica,sans-Serif" font-size="10.00" fill="#64748b">Σ</text>
<text xml:space="preserve" text-anchor="start" x="77.25" y="-46.55" font-family="Helvetica,sans-Serif" font-size="11.00" fill="#64748b"> </text>
</g>
<!-- p_batt -->
<g id="node3" class="node">
<title>p_batt</title>
<path fill="#e0f2fe" stroke="#334155" stroke-width="0.95" d="M197.25,-36C197.25,-36 167.25,-36 167.25,-36 161.25,-36 155.25,-30 155.25,-24 155.25,-24 155.25,-12 155.25,-12 155.25,-6 161.25,0 167.25,0 167.25,0 197.25,0 197.25,0 203.25,0 209.25,-6 209.25,-12 209.25,-12 209.25,-24 209.25,-24 209.25,-30 203.25,-36 197.25,-36"/>
<text xml:space="preserve" text-anchor="start" x="166.88" y="-13.97" font-family="Helvetica,sans-Serif" font-size="12.00"> </text>
<text xml:space="preserve" text-anchor="start" x="169.88" y="-13.97" font-family="Helvetica,sans-Serif" font-style="italic" font-size="12.00">P</text>
<text xml:space="preserve" text-anchor="start" x="178.13" y="-13.97" font-family="Helvetica,sans-Serif" baseline-shift="sub" font-size="12.00">batt</text>
<text xml:space="preserve" text-anchor="start" x="194.63" y="-13.97" font-family="Helvetica,sans-Serif" font-size="12.00"> </text>
</g>
<!-- p_device&#45;&gt;p_batt -->
<g id="edge2" class="edge">
<title>p_device&#45;&gt;p_batt</title>
<path fill="none" stroke="#334155" stroke-width="0.95" d="M95.56,-18C110.65,-18 129.59,-18 145.91,-18"/>
<polygon fill="#334155" stroke="#334155" stroke-width="0.95" points="145.53,-20.87 153.73,-18 145.53,-15.13 145.53,-20.87"/>
<text xml:space="preserve" text-anchor="start" x="101.25" y="-23.55" font-family="Helvetica,sans-Serif" font-size="11.00" fill="#64748b"> &#160;&#160;&#160;&#160;&#160;</text>
<text xml:space="preserve" text-anchor="start" x="119.25" y="-23.55" font-family="Helvetica,sans-Serif" font-size="11.00" fill="#64748b">/ </text>
<text xml:space="preserve" text-anchor="start" x="125.25" y="-23.55" font-family="Helvetica,sans-Serif" font-style="italic" font-size="11.00" fill="#64748b">η</text>
<text xml:space="preserve" text-anchor="start" x="132" y="-23.55" font-family="Helvetica,sans-Serif" baseline-shift="sub" font-size="11.00" fill="#64748b">0</text>
<text xml:space="preserve" text-anchor="start" x="137.25" y="-23.55" font-family="Helvetica,sans-Serif" font-size="11.00" fill="#64748b"> &#160;&#160;&#160;</text>
</g>
</g>
</svg>
