<?xml version="1.0" encoding="UTF-8" standalone="no"?>
<!DOCTYPE svg PUBLIC "-//W3C//DTD SVG 1.1//EN"
 "http://www.w3.org/Graphics/SVG/1.1/DTD/svg11.dtd">
<!-- Generated by graphviz version 14.1.2 (20260124.0452)
 -->
<!-- Title: fig01_power_model_study_v10_compact_min Pages: 1 -->
<svg width="444pt" height="173pt"
 viewBox="0.00 0.00 444.00 173.00" xmlns="http://www.w3.org/2000/svg" xmlns:xlink="http://www.w3.org/1999/xlink">
<g id="graph0" class="graph" transform="scale(1 1) rotate(0) translate(5.76 166.77)">
<title>fig01_power_model_study_v10_compact_min</title>
<!-- components -->
<g id="node1" class="node">
<title>components</title>
<path fill="#f1f5f9" stroke="#334155" d="M100.14,-161.01C100.14,-161.01 12,-161.01 12,-161.01 6,-161.01 0,-155.01 0,-149.01 0,-149.01 0,-12 0,-12 0,-6 6,0 12,0 12,0 100.14,0 100.14,0 106.14,0 112.14,-6 112.14,-12 112.14,-12 112.14,-149.01 112.14,-149.01 112.14,-155.01 106.14,-161.01 100.14,-161.01"/>
<text xml:space="preserve" text-anchor="start" x="9.32" y="-142.73" font-family="PingFang SC" font-weight="bold" font-size="12.00">功耗模块</text>
<polygon fill="#e2e8f0" stroke="none" points="6.32,-100.88 6.32,-130.88 48.32,-130.88 48.32,-100.88 6.32,-100.88"/>
<text xml:space="preserve" text-anchor="start" x="15.32" y="-117.48" font-family="PingFang SC" font-size="12.00">基础</text>
<text xml:space="preserve" text-anchor="start" x="12.69" y="-105.48" font-family="PingFang SC" font-style="italic" font-size="12.00">P</text>
<text xml:space="preserve" text-anchor="start" x="20.19" y="-105.48" font-family="PingFang SC" baseline-shift="sub" font-size="12.00">base</text>
<polygon fill="#dbeafe" stroke="none" points="50.32,-100.88 50.32,-130.88 105.82,-130.88 105.82,-100.88 50.32,-100.88"/>
<text xml:space="preserve" text-anchor="start" x="66.07" y="-117.48" font-family="PingFang SC" font-size="12.00">屏幕</text>
<text xml:space="preserve" text-anchor="start" x="53.32" y="-105.48" font-family="PingFang SC" font-style="italic" font-size="12.00">P</text>
<text xml:space="preserve" text-anchor="start" x="60.82" y="-105.48" font-family="PingFang SC" baseline-shift="sub" font-size="12.00">screen</text>
<text xml:space="preserve" text-anchor="start" x="90.82" y="-105.48" font-family="PingFang SC" font-size="12.00">(t)</text>
<polygon fill="#dcfce7" stroke="none" points="6.32,-68.88 6.32,-98.88 48.32,-98.88 48.32,-68.88 6.32,-68.88"/>
<text xml:space="preserve" text-anchor="start" x="14.94" y="-85.48" font-family="PingFang SC" font-size="12.00">CPU</text>
<text xml:space="preserve" text-anchor="start" x="9.32" y="-73.48" font-family="PingFang SC" font-style="italic" font-size="12.00">P</text>
<text xml:space="preserve" text-anchor="start" x="16.82" y="-73.48" font-family="PingFang SC" baseline-shift="sub" font-size="12.00">cpu</text>
<text xml:space="preserve" text-anchor="start" x="33.32" y="-73.48" font-family="PingFang SC" font-size="12.00">(t)</text>
<polygon fill="#dcfce7" stroke="none" points="50.32,-68.88 50.32,-98.88 105.82,-98.88 105.82,-68.88 50.32,-68.88"/>
<text xml:space="preserve" text-anchor="start" x="65.69" y="-85.48" font-family="PingFang SC" font-size="12.00">GPU</text>
<text xml:space="preserve" text-anchor="start" x="59.69" y="-73.48" font-family="PingFang SC" font-style="italic" font-size="12.00">P</text>
<text xml:space="preserve" text-anchor="start" x="67.19" y="-73.48" font-family="PingFang SC" baseline-shift="sub" font-size="12.00">gpu</text>
<text xml:space="preserve" text-anchor="start" x="84.44" y="-73.48" font-family="PingFang SC" font-size="12.00">(t)</text>
<polygon fill="#ffe4e6" stroke="none" points="6.32,-36.88 6.32,-66.88 48.32,-66.88 48.32,-36.88 6.32,-36.88"/>
<text xml:space="preserve" text-anchor="start" x="15.32" y="-53.48" font-family="PingFang SC" font-size="12.00">通信</text>
<text xml:space="preserve" text-anchor="start" x="10.44" y="-41.48" font-family="PingFang SC" font-style="italic" font-size="12.00">P</text>
<text xml:space="preserve" text-anchor="start" x="17.94" y="-41.48" font-family="PingFang SC" baseline-shift="sub" font-size="12.00">net</text>
<text xml:space="preserve" text-anchor="start" x="32.19" y="-41.48" font-family="PingFang SC" font-size="12.00">(t)</text>
<polygon fill="#ffe4e6" stroke="none" points="50.32,-36.88 50.32,-66.88 105.82,-66.88 105.82,-36.88 50.32,-36.88"/>
<text xml:space="preserve" text-anchor="start" x="66.07" y="-53.48" font-family="PingFang SC" font-size="12.00">定位</text>
<text xml:space="preserve" text-anchor="start" x="59.69" y="-41.48" font-family="PingFang SC" font-style="italic" font-size="12.00">P</text>
<text xml:space="preserve" text-anchor="start" x="67.19" y="-41.48" font-family="PingFang SC" baseline-shift="sub" font-size="12.00">gps</text>
<text xml:space="preserve" text-anchor="start" x="84.44" y="-41.48" font-family="PingFang SC" font-size="12.00">(t)</text>
<polygon fill="#fef9c3" stroke="none" points="6.32,-4.88 6.32,-34.88 48.32,-34.88 48.32,-4.88 6.32,-4.88"/>
<text xml:space="preserve" text-anchor="start" x="15.32" y="-21.48" font-family="PingFang SC" font-size="12.00">后台</text>
<text xml:space="preserve" text-anchor="start" x="11.57" y="-9.48" font-family="PingFang SC" font-style="italic" font-size="12.00">P</text>
<text xml:space="preserve" text-anchor="start" x="19.07" y="-9.48" font-family="PingFang SC" baseline-shift="sub" font-size="12.00">bg</text>
<text xml:space="preserve" text-anchor="start" x="31.07" y="-9.48" font-family="PingFang SC" font-size="12.00">(t)</text>
<polygon fill="#fef9c3" stroke="none" points="50.32,-4.88 50.32,-34.88 105.82,-34.88 105.82,-4.88 50.32,-4.88"/>
<text xml:space="preserve" text-anchor="start" x="66.07" y="-21.48" font-family="PingFang SC" font-size="12.00">交互</text>
<text xml:space="preserve" text-anchor="start" x="62.69" y="-9.48" font-family="PingFang SC" font-style="italic" font-size="12.00">P</text>
<text xml:space="preserve" text-anchor="start" x="70.19" y="-9.48" font-family="PingFang SC" baseline-shift="sub" font-size="12.00">int</text>
<text xml:space="preserve" text-anchor="start" x="81.44" y="-9.48" font-family="PingFang SC" font-size="12.00">(t)</text>
</g>
<!-- p_device -->
<g id="node2" class="node">
<title>p_device</title>
<path fill="#e0e7ff" stroke="#334155" d="M223.53,-98.5C223.53,-98.5 175.14,-98.5 175.14,-98.5 169.14,-98.5 163.14,-92.5 163.14,-86.5 163.14,-86.5 163.14,-74.5 163.14,-74.5 163.14,-68.5 169.14,-62.5 175.14,-62.5 175.14,-62.5 223.53,-62.5 223.53,-62.5 229.53,-62.5 235.53,-68.5 235.53,-74.5 235.53,-74.5 235.53,-86.5 235.53,-86.5 235.53,-92.5 229.53,-98.5 223.53,-98.5"/>
<text xml:space="preserve" text-anchor="start" x="167.46" y="-82.1" font-family="PingFang SC" font-size="12.00"> </text>
<text xml:space="preserve" text-anchor="start" x="171.21" y="-82.1" font-family="PingFang SC" font-weight="bold" font-size="12.00">设备总功耗</text>
<text xml:space="preserve" text-anchor="start" x="173.46" y="-70.1" font-family="PingFang SC" font-style="italic" font-size="12.00">P</text>
<text xml:space="preserve" text-anchor="start" x="180.96" y="-70.1" font-family="PingFang SC" baseline-shift="sub" font-size="12.00">device</text>
<text xml:space="preserve" text-anchor="start" x="209.46" y="-70.1" font-family="PingFang SC" font-size="12.00">(t) </text>
</g>
<!-- components&#45;&gt;p_device -->
<g id="edge1" class="edge">
<title>components&#45;&gt;p_device</title>
<path fill="none" stroke="#334155" d="M112.5,-80.5C126.05,-80.5 140.38,-80.5 153.38,-80.5"/>
<polygon fill="#334155" stroke="#334155" points="153,-83.48 161.5,-80.51 153,-77.53 153,-83.48"/>
<text xml:space="preserve" text-anchor="start" x="124.14" y="-86.8" font-family="PingFang SC" font-size="11.00" fill="#64748b"> </text>
<text xml:space="preserve" text-anchor="start" x="127.89" y="-86.8" font-family="PingFang SC" font-size="10.00" fill="#64748b">求和</text>
<text xml:space="preserve" text-anchor="start" x="147.39" y="-86.8" font-family="PingFang SC" font-size="11.00" fill="#64748b"> </text>
</g>
<!-- p_batt -->
<g id="node3" class="node">
<title>p_batt</title>
<path fill="#e0f2fe" stroke="#334155" d="M420.42,-98.5C420.42,-98.5 372.03,-98.5 372.03,-98.5 366.03,-98.5 360.03,-92.5 360.03,-86.5 360.03,-86.5 360.03,-74.5 360.03,-74.5 360.03,-68.5 366.03,-62.5 372.03,-62.5 372.03,-62.5 420.42,-62.5 420.42,-62.5 426.42,-62.5 432.42,-68.5 432.42,-74.5 432.42,-74.5 432.42,-86.5 432.42,-86.5 432.42,-92.5 426.42,-98.5 420.42,-98.5"/>
<text xml:space="preserve" text-anchor="start" x="364.35" y="-82.1" font-family="PingFang SC" font-size="12.00"> </text>
<text xml:space="preserve" text-anchor="start" x="368.1" y="-82.1" font-family="PingFang SC" font-weight="bold" font-size="12.00">电池端功率</text>
<text xml:space="preserve" text-anchor="start" x="375.22" y="-70.1" font-family="PingFang SC" font-style="italic" font-size="12.00">P</text>
<text xml:space="preserve" text-anchor="start" x="382.72" y="-70.1" font-family="PingFang SC" baseline-shift="sub" font-size="12.00">batt</text>
<text xml:space="preserve" text-anchor="start" x="401.47" y="-70.1" font-family="PingFang SC" font-size="12.00">(t) </text>
</g>
<!-- p_device&#45;&gt;p_batt -->
<g id="edge2" class="edge">
<title>p_device&#45;&gt;p_batt</title>
<path fill="none" stroke="#334155" d="M235.63,-80.5C267.58,-80.5 314.82,-80.5 349.62,-80.5"/>
<polygon fill="#334155" stroke="#334155" points="349.52,-83.48 358.02,-80.51 349.52,-77.53 349.52,-83.48"/>
<text xml:space="preserve" text-anchor="start" x="247.53" y="-93.05" font-family="PingFang SC" font-size="11.00" fill="#64748b"> &#160;&#160;&#160;&#160;&#160;</text>
<text xml:space="preserve" text-anchor="start" x="270.03" y="-93.05" font-family="PingFang SC" font-size="11.00" fill="#64748b">除以效率 </text>
<text xml:space="preserve" text-anchor="start" x="318.78" y="-93.05" font-family="PingFang SC" font-style="italic" font-size="11.00" fill="#64748b">η</text>
<text xml:space="preserve" text-anchor="start" x="324.78" y="-93.05" font-family="PingFang SC" baseline-shift="sub" font-size="11.00" fill="#64748b">PMIC</text>
<text xml:space="preserve" text-anchor="start" x="256.9" y="-82.05" font-family="PingFang SC" font-size="11.00" fill="#64748b"> &#160;&#160;&#160;&#160;&#160;</text>
<text xml:space="preserve" text-anchor="start" x="279.4" y="-82.05" font-family="PingFang SC" font-size="9.00" fill="#64748b">(</text>
<text xml:space="preserve" text-anchor="start" x="282.4" y="-82.05" font-family="PingFang SC" font-style="italic" font-size="9.00" fill="#64748b">η</text>
<text xml:space="preserve" text-anchor="start" x="287.65" y="-82.05" font-family="PingFang SC" baseline-shift="sub" font-size="9.00" fill="#64748b">PMIC</text>
<text xml:space="preserve" text-anchor="start" x="305.65" y="-82.05" font-family="PingFang SC" font-size="9.00" fill="#64748b">=</text>
<text xml:space="preserve" text-anchor="start" x="310.9" y="-82.05" font-family="PingFang SC" font-style="italic" font-size="9.00" fill="#64748b">η</text>
<text xml:space="preserve" text-anchor="start" x="316.15" y="-82.05" font-family="PingFang SC" baseline-shift="sub" font-size="9.00" fill="#64748b">0</text>
<text xml:space="preserve" text-anchor="start" x="320.65" y="-82.05" font-family="PingFang SC" font-size="9.00" fill="#64748b">)</text>
<text xml:space="preserve" text-anchor="start" x="323.65" y="-82.05" font-family="PingFang SC" font-size="11.00" fill="#64748b"> &#160;&#160;&#160;</text>
</g>
</g>
</svg>
